<?xml version="1.0" encoding="UTF-8" standalone="no"?>
<svg width="64px" height="64px" viewBox="0 0 64 64" version="1.1" xmlns="http://www.w3.org/2000/svg" xmlns:xlink="http://www.w3.org/1999/xlink" xmlns:sketch="http://www.bohemiancoding.com/sketch/ns">
    <!-- Generator: Sketch 3.4.4 (17249) - http://www.bohemiancoding.com/sketch -->
    <title>coroflot</title>
    <desc>Created with Sketch.</desc>
    <defs></defs>
    <g id="Page-1" stroke="none" stroke-width="1" fill="none" fill-rule="evenodd" sketch:type="MSPage">
        <g id="coroflot" sketch:type="MSArtboardGroup" fill="#FFFFFF">
            <path d="M45.6027501,42.7320527 C45.6027501,41.3250497 46.7438843,40.184829 48.1508874,40.184829 C49.5578904,40.184829 50.6981111,41.3250497 50.6981111,42.7320527 C50.6981111,44.1390558 49.5578904,45.28019 48.1508874,45.28019 C46.7429707,45.28019 45.6027501,44.1390558 45.6027501,42.7320527 M49.4464265,19.8664261 C49.4464265,21.2734291 48.3052923,22.4145634 46.8982892,22.4145634 C45.4912862,22.4145634 44.3501519,21.2734291 44.3501519,19.8664261 C44.3501519,18.459423 45.4912862,17.3192024 46.8982892,17.3192024 C48.3052923,17.3192024 49.4464265,18.459423 49.4464265,19.8664261 M41.2291633,46.4898472 C41.2291633,45.0828442 42.369384,43.9426235 43.776387,43.9426235 C45.1833901,43.9426235 46.3245243,45.0828442 46.3245243,46.4898472 C46.325438,47.8977639 45.1833901,49.0370709 43.776387,49.0370709 C42.369384,49.0370709 41.2291633,47.8968502 41.2291633,46.4898472 M43.5744729,36.585094 C44.9823896,36.585094 46.1226103,37.7262283 46.1226103,39.1332313 C46.1226103,40.5402343 44.9823896,41.6813686 43.5744729,41.6813686 C42.1683835,41.6813686 41.0281629,40.5402343 41.0281629,39.1332313 C41.0281629,37.7262283 42.1683835,36.585094 43.5744729,36.585094 M44.8910258,16.3946004 C44.8910258,17.8016034 43.7508051,18.9418241 42.3438021,18.9418241 C40.9367991,18.9418241 39.7965784,17.8016034 39.7965784,16.3946004 C39.7965784,14.9875974 40.9367991,13.8464631 42.3438021,13.8464631 C43.7508051,13.8464631 44.8910258,14.9875974 44.8910258,16.3946004 M42.0569197,20.5242457 C43.4639227,20.5242457 44.605057,21.6644663 44.605057,23.0714694 C44.605057,24.4784724 43.4639227,25.6196067 42.0569197,25.6196067 C40.6499166,25.6196067 39.509696,24.4784724 39.509696,23.0714694 C39.509696,21.66538 40.6499166,20.5242457 42.0569197,20.5242457 M39.2118499,45.28019 C37.8048469,45.28019 36.6646262,44.1390558 36.6646262,42.7320527 C36.6646262,41.3250497 37.8048469,40.184829 39.2118499,40.184829 C40.6188529,40.184829 41.7599872,41.3250497 41.7599872,42.7320527 C41.7599872,44.1390558 40.6188529,45.28019 39.2118499,45.28019 M36.0387839,48.8790114 C36.0387839,47.4720084 37.1790046,46.3308741 38.5860076,46.3308741 C39.9930107,46.3308741 41.1332313,47.4720084 41.1332313,48.8790114 C41.1332313,50.2860145 39.9930107,51.4271488 38.5860076,51.4271488 C37.1790046,51.4271488 36.0387839,50.2860145 36.0387839,48.8790114 M34.4134213,20.3543089 C34.4134213,18.9473059 35.553642,17.8070853 36.9615587,17.8070853 C38.3694753,17.8070853 39.509696,18.9473059 39.509696,20.3543089 C39.509696,21.761312 38.3694753,22.9024463 36.9615587,22.9024463 C35.553642,22.9024463 34.4134213,21.761312 34.4134213,20.3543089 M39.476805,14.5472237 C39.476805,15.9542267 38.3365844,17.095361 36.9295813,17.095361 C35.5225783,17.095361 34.3823576,15.9542267 34.3823576,14.5472237 C34.3823576,13.1402206 35.5225783,12 36.9295813,12 C38.3365844,12 39.476805,13.1402206 39.476805,14.5472237 M33.638656,46.4898472 C32.231653,46.4898472 31.0914324,45.3496266 31.0914324,43.9426235 C31.0914324,42.5356205 32.231653,41.3944862 33.638656,41.3944862 C35.0456591,41.3944862 36.1867934,42.5356205 36.1867934,43.9426235 C36.1867934,45.3496266 35.0456591,46.4898472 33.638656,46.4898472 M30.3696581,49.4518627 C30.3696581,48.0448596 31.5098787,46.9037254 32.9168818,46.9037254 C34.3238848,46.9037254 35.4650191,48.0448596 35.4650191,49.4518627 C35.4650191,50.8588657 34.3238848,52 32.9168818,52 C31.5098787,52 30.3696581,50.8588657 30.3696581,49.4518627 M33.8085928,14.5472237 C33.8085928,15.9542267 32.6683721,17.095361 31.2613691,17.095361 C29.8534524,17.095361 28.7132318,15.9542267 28.7132318,14.5472237 C28.7132318,13.1402206 29.8534524,12 31.2613691,12 C32.6683721,12 33.8085928,13.1402206 33.8085928,14.5472237 M33.7026107,20.3113679 C33.7026107,21.7192846 32.5614764,22.8595053 31.1544734,22.8595053 C29.7474704,22.8595053 28.6072497,21.7192846 28.6072497,20.3113679 C28.6063361,18.9052785 29.7474704,17.7641443 31.1544734,17.7641443 C32.5623901,17.7641443 33.7026107,18.9043649 33.7026107,20.3113679 M25.6132569,42.4460839 C25.6132569,41.0381672 26.7543912,39.897033 28.1613942,39.897033 C29.5683972,39.897033 30.7086179,41.0381672 30.7086179,42.4460839 C30.7086179,43.853087 29.5683972,44.9933076 28.1613942,44.9933076 C26.7534775,44.9933076 25.6132569,43.853087 25.6132569,42.4460839 M24.7964642,48.1142962 C24.7964642,46.7082068 25.9366849,45.5679861 27.3436879,45.5679861 C28.7506909,45.5679861 29.8918252,46.7082068 29.8918252,48.1142962 C29.8918252,49.5222128 28.7506909,50.6624335 27.3436879,50.6624335 C25.9366849,50.6624335 24.7964642,49.5222128 24.7964642,48.1142962 M23.5118887,22.9554373 C23.5118887,21.5475206 24.6521094,20.4073 26.0581988,20.4073 C27.4661154,20.4073 28.6072497,21.5475206 28.6072497,22.9554373 C28.6072497,24.3624403 27.4661154,25.502661 26.0581988,25.502661 C24.6521094,25.502661 23.5118887,24.3624403 23.5118887,22.9554373 M28.4263493,16.3626231 C28.4263493,17.7696261 27.285215,18.9107604 25.878212,18.9107604 C24.471209,18.9107604 23.3309883,17.7696261 23.3309883,16.3626231 C23.3309883,14.95562 24.471209,13.8153994 25.878212,13.8153994 C27.285215,13.8153994 28.4263493,14.95562 28.4263493,16.3626231 M26.5369453,38.5914438 C26.5369453,39.9984468 25.395811,41.1395811 23.9888079,41.1395811 C22.5818049,41.1395811 21.4415842,39.9984468 21.4415842,38.5914438 C21.4415842,37.1853544 22.5818049,36.0442201 23.9888079,36.0442201 C25.395811,36.0442201 26.5369453,37.1853544 26.5369453,38.5914438 M22.7462598,25.1207601 C24.1532628,25.1207601 25.2943971,26.2618944 25.2943971,27.6688975 C25.2943971,29.0749869 24.1532628,30.2161211 22.7462598,30.2161211 C21.3401704,30.2161211 20.1990361,29.0749869 20.1990361,27.6688975 C20.1990361,26.2618944 21.3392568,25.1207601 22.7462598,25.1207601 M19.89114,45.184258 C19.89114,43.777255 21.0322743,42.6370343 22.4383637,42.6370343 C23.8462803,42.6370343 24.9874146,43.777255 24.9874146,45.184258 C24.9874146,46.591261 23.8462803,47.7323953 22.4383637,47.7323953 C21.0322743,47.7323953 19.89114,46.591261 19.89114,45.184258 M24.5936365,33.2411777 C24.5936365,34.6490944 23.4534159,35.789315 22.0454992,35.789315 C20.6394098,35.789315 19.4982755,34.6490944 19.4982755,33.2411777 C19.4982755,31.8350883 20.6394098,30.693954 22.0454992,30.693954 C23.4534159,30.693954 24.5936365,31.8350883 24.5936365,33.2411777 M23.8718622,19.7065394 C23.8718622,21.1135424 22.7316416,22.2546767 21.3246385,22.2546767 C19.9176355,22.2546767 18.7774149,21.1135424 18.7774149,19.7065394 C18.7765012,18.2995363 19.9176355,17.1593157 21.3246385,17.1593157 C22.7316416,17.1593157 23.8718622,18.2995363 23.8718622,19.7065394 M18.8404559,38.2744113 C20.2474589,38.2744113 21.3876796,39.4146319 21.3876796,40.821635 C21.3876796,42.228638 20.2474589,43.3688586 18.8404559,43.3688586 C17.4334529,43.3688586 16.2923186,42.228638 16.2923186,40.821635 C16.2923186,39.4146319 17.4334529,38.2744113 18.8404559,38.2744113 M20.6558553,24.3569585 C20.6558553,25.7639615 19.514721,26.9041822 18.107718,26.9041822 C16.7007149,26.9041822 15.5604943,25.7639615 15.5604943,24.3569585 C15.5604943,22.9499555 16.7007149,21.8088212 18.107718,21.8088212 C19.5156346,21.8088212 20.6558553,22.9499555 20.6558553,24.3569585 M16.8341061,32.9862726 C18.2411092,32.9862726 19.3813298,34.1274069 19.3813298,35.5353235 C19.3813298,36.9423266 18.2411092,38.0825472 16.8341061,38.0825472 C15.4271031,38.0825472 14.2868824,36.9423266 14.2868824,35.5353235 C14.2868824,34.1274069 15.4271031,32.9862726 16.8341061,32.9862726 M19.095361,29.8342203 C19.095361,31.2412234 17.9542267,32.381444 16.5472237,32.381444 C15.1402206,32.381444 14,31.2412234 14,29.8342203 C14,28.4272173 15.1402206,27.286083 16.5472237,27.286083 C17.9551404,27.286083 19.095361,28.4272173 19.095361,29.8342203" id="Fill-1" sketch:type="MSShapeGroup"></path>
        </g>
    </g>
</svg>