<?xml version="1.0" encoding="UTF-8" standalone="no"?>
<svg width="64px" height="64px" viewBox="0 0 64 64" version="1.1" xmlns="http://www.w3.org/2000/svg" xmlns:xlink="http://www.w3.org/1999/xlink" xmlns:sketch="http://www.bohemiancoding.com/sketch/ns">
    <!-- Generator: Sketch 3.4.4 (17249) - http://www.bohemiancoding.com/sketch -->
    <title>cv</title>
    <desc>Created with Sketch.</desc>
    <defs></defs>
    <g id="Page-1" stroke="none" stroke-width="1" fill="none" fill-rule="evenodd" sketch:type="MSPage">
        <g id="cv" sketch:type="MSArtboardGroup" fill="#FFFFFF">
            <path d="M31.3333333,44.6666652 L26.5185185,39.8518504 L25.4074074,40.9629615 L32.0740741,47.6296281 L38.7407407,40.9629615 L37.6296296,39.8518504 L32.8148148,44.6666652 L32.8148148,28.2962963 L31.3333333,28.2962963 L31.3333333,44.6666652 L31.3333333,44.6666652 Z M35.7777778,12 L20.9756003,12 C19.3322216,12 18,13.3308716 18,14.9738221 L18,49.0261779 C18,50.6685745 19.3198895,52 20.9591436,52 L43.1890046,52 C44.8232944,52 46.1481481,50.6801105 46.1481481,49.0408564 L46.1481481,23.8518519 L38.7495097,23.8518519 C37.1082675,23.8518519 35.7777778,22.5382128 35.7777778,20.8917017 L35.7777778,12 L35.7777778,12 Z M37.2592593,12 L37.2592593,20.8845491 C37.2592593,21.7051455 37.9273706,22.3703704 38.7270785,22.3703704 L46.1481481,22.3703704 L37.2592593,12 L37.2592593,12 Z" id="document-download" sketch:type="MSShapeGroup"></path>
        </g>
    </g>
</svg>