<?xml version="1.0" encoding="UTF-8" standalone="no"?>
<svg width="64px" height="64px" viewBox="0 0 64 64" version="1.1" xmlns="http://www.w3.org/2000/svg" xmlns:xlink="http://www.w3.org/1999/xlink" xmlns:sketch="http://www.bohemiancoding.com/sketch/ns">
    <!-- Generator: Sketch 3.4.4 (17249) - http://www.bohemiancoding.com/sketch -->
    <title>linkedin</title>
    <desc>Created with Sketch.</desc>
    <defs></defs>
    <g id="Page-1" stroke="none" stroke-width="1" fill="none" fill-rule="evenodd" sketch:type="MSPage">
        <g id="linkedin" sketch:type="MSArtboardGroup" fill="#FFFFFF">
            <path d="M42.876948,50.4668498 L42.876948,35.9819386 C42.876948,32.6153049 41.7002522,30.3166832 38.7606522,30.3166832 C36.5159445,30.3166832 35.1817854,31.8673543 34.5921539,33.3641113 C34.3790649,33.8972615 34.3242951,34.6469237 34.3242951,35.3940186 L34.3242951,50.4668498 L26.2012431,50.4668498 L26.2012431,32.6683632 C26.2012431,29.4087019 26.0951266,26.6830466 25.9881542,24.329655 L33.0423385,24.329655 L33.4163138,27.9650032 L33.5772003,27.9650032 C34.6460679,26.2543014 37.2638951,23.7425908 41.6480497,23.7425908 C46.9923881,23.7425908 51,27.3240249 51,35.0200432 L51,50.4668498 L42.876948,50.4668498 Z M13.2139447,24.329655 L21.3387082,24.329655 L21.3387082,50.4668498 L13.2139447,50.4668498 L13.2139447,24.329655 Z M13,17.0623818 C13,14.7629042 14.7107017,13 17.328529,13 C19.9489235,13 21.5526529,14.7629042 21.6048554,17.0623818 C21.6048554,19.3062337 19.9489235,21.123052 17.2224124,21.123052 C14.6567877,21.123052 13,19.3062337 13,17.0623818 L13,17.0623818 Z" id="Fill-1" sketch:type="MSShapeGroup"></path>
        </g>
    </g>
</svg>