<?xml version="1.0" encoding="UTF-8" standalone="no"?>
<svg width="64px" height="64px" viewBox="0 0 64 64" version="1.1" xmlns="http://www.w3.org/2000/svg" xmlns:xlink="http://www.w3.org/1999/xlink" xmlns:sketch="http://www.bohemiancoding.com/sketch/ns">
    <!-- Generator: Sketch 3.4.4 (17249) - http://www.bohemiancoding.com/sketch -->
    <title>vimeo</title>
    <desc>Created with Sketch.</desc>
    <defs></defs>
    <g id="Page-1" stroke="none" stroke-width="1" fill="none" fill-rule="evenodd" sketch:type="MSPage">
        <g id="vimeo" sketch:type="MSArtboardGroup" fill="#FFFFFF">
            <path d="M33.7228608,50.1027757 C30.2469076,52.3970401 27.076706,49.183267 25.9280713,46.7530295 C24.6119118,43.9817324 20.6679406,28.9570803 19.6349958,27.7130391 C18.6020509,26.4667442 15.5032164,28.9570803 15.5032164,28.9570803 L14,26.9490356 C14,26.9490356 20.2930755,19.2932241 25.0821834,18.3361537 C30.1597646,17.3204872 30.1522522,26.2774336 31.3730052,31.2520959 C32.5539429,36.0629895 33.3494982,38.8155058 34.3786869,38.8155058 C35.4131342,38.8155058 37.3851198,36.1321029 39.5441623,32.0198556 C41.7077122,27.9015985 39.4517607,24.2663839 35.225326,26.8513753 C36.9148482,16.5174196 52.8830484,14.0330934 50.8156563,25.894305 C48.7490154,37.7607752 37.1965604,47.8070088 33.7228608,50.1027757" id="Fill-1" sketch:type="MSShapeGroup"></path>
        </g>
    </g>
</svg>